<?xml version="1.0" standalone="no"?><!DOCTYPE svg PUBLIC "-//W3C//DTD SVG 1.1//EN" "http://www.w3.org/Graphics/SVG/1.1/DTD/svg11.dtd"><svg class="icon" width="200px" height="200.00px" viewBox="0 0 1024 1024" version="1.1" xmlns="http://www.w3.org/2000/svg"><path d="M859 79.27H165a90 90 0 0 0-90 90v694a90 90 0 0 0 90 90h694a90 90 0 0 0 90-90v-694a90 90 0 0 0-90-90z m-693 60h694a30 30 0 0 1 30 30v145H136v-145a30 30 0 0 1 30-30z m693 754H165a30 30 0 0 1-30-30v-489h754v489a30 30 0 0 1-30 30z" fill="#878A94" /><path d="M223.47 227.98m-50 0a50 50 0 1 0 100 0 50 50 0 1 0-100 0Z" fill="#878A94" /><path d="M353.08 227.98m-50 0a50 50 0 1 0 100 0 50 50 0 1 0-100 0Z" fill="#878A94" /><path d="M482.69 227.98m-50 0a50 50 0 1 0 100 0 50 50 0 1 0-100 0Z" fill="#878A94" /></svg>